<?xml version="1.0" encoding="UTF-8"?>
<svg xmlns="http://www.w3.org/2000/svg" version="1.1" viewBox="0 0 262.02 50.72">
  <defs>
    <style>
      .cls-1 {
        fill: #fff;
      }
    </style>
  </defs>
  <!-- Generator: Adobe Illustrator 28.6.0, SVG Export Plug-In . SVG Version: 1.2.0 Build 709)  -->
  <g>
    <g id="Layer_1">
      <g>
        <g>
          <path class="cls-1" d="M131.74,36.86h2.31l5.08,12.46h-2.21l-1.34-3.56h-5.45l-1.35,3.56h-2.1l5.06-12.46ZM134.96,44.11l-1.67-4.43c-.16-.43-.29-.78-.43-1.19-.12.41-.29.78-.43,1.19l-1.67,4.43h4.2Z"/>
          <path class="cls-1" d="M139.68,46.4h1.85c.05,1.1.77,1.8,2.03,1.8,1.09,0,1.8-.5,1.8-1.26,0-.62-.48-.98-1.46-1.18l-1.18-.23c-1.71-.32-2.74-1.16-2.74-2.55,0-1.48,1.41-2.58,3.45-2.58,2.19,0,3.54,1.1,3.63,2.88h-1.85c-.09-.94-.77-1.48-1.83-1.48-.93,0-1.57.41-1.57,1.09,0,.61.43.91,1.46,1.1l1.19.23c1.62.32,2.71,1.09,2.71,2.56,0,1.6-1.37,2.81-3.6,2.81-2.39,0-3.81-1.26-3.9-3.21Z"/>
          <path class="cls-1" d="M148.44,46.4h1.85c.05,1.1.77,1.8,2.03,1.8,1.09,0,1.8-.5,1.8-1.26,0-.62-.48-.98-1.46-1.18l-1.18-.23c-1.71-.32-2.74-1.16-2.74-2.55,0-1.48,1.41-2.58,3.45-2.58,2.19,0,3.54,1.1,3.63,2.88h-1.85c-.09-.94-.77-1.48-1.83-1.48-.93,0-1.57.41-1.57,1.09,0,.61.43.91,1.46,1.1l1.19.23c1.62.32,2.71,1.09,2.71,2.56,0,1.6-1.37,2.81-3.6,2.81-2.39,0-3.81-1.26-3.9-3.21Z"/>
          <path class="cls-1" d="M157.35,45.01c0-2.76,1.8-4.61,4.33-4.61s4.34,1.85,4.34,4.61-1.8,4.59-4.34,4.59-4.33-1.78-4.33-4.59ZM161.68,48.17c1.5,0,2.46-1.23,2.46-3.15s-.98-3.15-2.46-3.15-2.44,1.19-2.44,3.15.94,3.15,2.44,3.15Z"/>
          <path class="cls-1" d="M167.41,45c0-2.81,1.92-4.59,4.42-4.59,2.28,0,3.72,1.37,3.92,3.37h-1.89c-.11-1.05-.8-1.91-2.05-1.91-1.46,0-2.51,1.25-2.51,3.13s1,3.17,2.49,3.17c1.3,0,2.03-.82,2.17-1.94h1.85c-.23,2.03-1.62,3.38-4.08,3.38s-4.33-1.66-4.33-4.61Z"/>
          <path class="cls-1" d="M177.53,37.16h2.01v2.05h-2.01v-2.05ZM177.6,40.69h1.85v8.64h-1.85v-8.64Z"/>
          <path class="cls-1" d="M181.39,46.96c0-1.82,1.42-2.55,3.12-2.78l1.55-.23c.68-.09.91-.34.91-.82,0-.77-.61-1.32-1.57-1.32-1.18,0-1.83.64-1.89,1.62h-1.89c.09-1.69,1.44-3.03,3.65-3.03,2.39,0,3.53,1.33,3.53,3.54v5.38h-1.73v-.39c0-.27.02-.52.04-.78-.45.87-1.35,1.46-2.74,1.46-1.57,0-2.97-1-2.97-2.65ZM184.78,48.22c1.26,0,2.23-.89,2.23-2.21v-1.1c-.14.18-.46.29-.98.37l-.98.2c-1.01.2-1.75.59-1.75,1.42s.66,1.32,1.48,1.32Z"/>
          <path class="cls-1" d="M191.83,46.78v-4.59h-1.8v-1.5h1.8v-2.99h1.85v2.99h1.96v1.5h-1.96v4.34c0,.96.43,1.39,1.26,1.39.21,0,.43-.02.66-.05v1.48c-.27.07-.69.12-1.14.12-1.57,0-2.64-.77-2.64-2.69Z"/>
          <path class="cls-1" d="M196.74,44.98c0-2.69,1.78-4.58,4.22-4.58,2.6,0,4.08,1.82,4.08,4.61v.39h-6.43c.04,1.67,1.03,2.76,2.44,2.76,1,0,1.87-.48,2.05-1.58h1.87c-.18,1.64-1.53,3.03-3.94,3.03-2.58,0-4.29-1.64-4.29-4.63ZM203.1,44.09c-.02-1.35-.82-2.28-2.15-2.28s-2.19.98-2.32,2.28h4.47Z"/>
          <path class="cls-1" d="M206.81,46.96h2.37v2.37h-2.37v-2.37Z"/>
          <path class="cls-1" d="M210.8,45.17h2.05c.11,1.76,1.48,2.78,3.29,2.78,1.71,0,2.83-.71,2.83-1.99,0-1.07-.84-1.58-2.26-1.89l-1.99-.43c-1.92-.41-3.47-1.53-3.47-3.47,0-2.12,1.98-3.62,4.7-3.62,2.92,0,4.68,1.57,4.83,3.94h-2.05c-.07-1.32-1.07-2.28-2.85-2.28-1.5,0-2.62.69-2.62,1.78,0,1.02.78,1.51,2.14,1.8l2.15.46c1.96.41,3.46,1.5,3.46,3.49,0,2.19-1.8,3.86-4.93,3.86s-5.15-1.73-5.27-4.43Z"/>
          <path class="cls-1" d="M223.76,46.78v-4.59h-1.8v-1.5h1.8v-2.99h1.85v2.99h1.96v1.5h-1.96v4.34c0,.96.43,1.39,1.26,1.39.21,0,.43-.02.66-.05v1.48c-.27.07-.69.12-1.14.12-1.57,0-2.64-.77-2.64-2.69Z"/>
          <path class="cls-1" d="M229.2,46.17v-5.49h1.85v5.16c0,1.42.55,2.3,1.78,2.3s2.03-.94,2.03-2.51v-4.95h1.85v8.64h-1.83v-.45c0-.25.02-.52.05-.75-.43.87-1.34,1.48-2.64,1.48-1.87,0-3.1-1.19-3.1-3.44Z"/>
          <path class="cls-1" d="M238.62,45.01c0-2.85,1.76-4.61,4.01-4.61,1.39,0,2.28.73,2.72,1.48-.04-.27-.04-.52-.04-.77v-4.26h1.85v12.46h-1.85v-.43c0-.28,0-.52.04-.77-.41.71-1.32,1.48-2.76,1.48-2.28,0-3.97-1.6-3.97-4.59ZM242.98,48.17c1.41,0,2.44-1.26,2.44-3.17s-1.01-3.13-2.44-3.13-2.46,1.28-2.46,3.15,1.02,3.15,2.46,3.15Z"/>
          <path class="cls-1" d="M249.52,37.16h2.01v2.05h-2.01v-2.05ZM249.59,40.69h1.85v8.64h-1.85v-8.64Z"/>
          <path class="cls-1" d="M253.35,45.01c0-2.76,1.8-4.61,4.33-4.61s4.34,1.85,4.34,4.61-1.8,4.59-4.34,4.59-4.33-1.78-4.33-4.59ZM257.67,48.17c1.5,0,2.46-1.23,2.46-3.15s-.98-3.15-2.46-3.15-2.44,1.19-2.44,3.15.94,3.15,2.44,3.15Z"/>
        </g>
        <g>
          <path class="cls-1" d="M48.1,40.86h-21.79c-2.04,0-3.7-1.65-3.7-3.7s1.65-3.7,3.7-3.7h21.79c2.04,0,3.7,1.65,3.7,3.7s-1.66,3.7-3.7,3.7"/>
          <path class="cls-1" d="M3.69,50.72c-.65,0-1.3-.18-1.9-.53-1.75-1.05-2.32-3.33-1.26-5.08L26.57,1.79c1.05-1.75,3.33-2.32,5.08-1.26,1.75,1.05,2.32,3.33,1.26,5.08L6.86,48.93c-.69,1.15-1.92,1.79-3.17,1.79"/>
          <path class="cls-1" d="M70.71,50.72c-1.25,0-2.48-.64-3.18-1.79L41.49,5.61c-1.05-1.75-.49-4.03,1.26-5.08,1.75-1.05,4.03-.49,5.08,1.26l26.05,43.32c1.05,1.75.49,4.03-1.26,5.08-.6.37-1.26.53-1.91.53"/>
        </g>
      </g>
    </g>
  </g>
</svg>