<?xml version="1.0" encoding="UTF-8"?>
<svg xmlns="http://www.w3.org/2000/svg" version="1.1" viewBox="0 0 1920 1080">
  <!-- Generator: Adobe Illustrator 28.6.0, SVG Export Plug-In . SVG Version: 1.2.0 Build 709)  -->
  <g>
    <g id="Layer_1">
      <g>
        <path d="M160.44,526.02h-76.13v-248.48h76.13c73.91,0,104.81,31.86,104.81,117.87v12.74c0,86.01-30.9,117.87-104.81,117.87ZM157.58,481.42c43.01,0,55.11-23.57,55.11-73.27v-12.74c0-49.69-12.1-73.27-55.11-73.27h-21.66v159.28h21.66Z"/>
        <path d="M447.46,277.54v44.6h-100.35v54.79h84.42v44.6h-84.42v59.89h100.35v44.6h-151.95v-248.48h151.95Z"/>
        <path d="M526.77,526.66l-62.12-249.11h55.11l42.37,189.54,42.37-189.54h55.43l-62.12,249.11h-71.04Z"/>
        <path d="M676.81,408.15v-12.74c0-86.01,30.26-122.01,94.61-122.01s94.93,36,94.93,122.01v12.74c0,86.01-30.26,122.01-94.93,122.01s-94.61-36-94.61-122.01ZM773.01,485.56c31.86,0,40.78-27.71,40.78-77.41v-12.74c0-49.69-8.92-77.41-40.78-77.41h-2.87c-31.86,0-41.09,27.71-41.09,77.41v12.74c0,49.69,9.24,77.41,41.09,77.41h2.87Z"/>
        <path d="M1078.5,526.02h-54.47l-80.28-154.18,1.59,50.01v104.17h-48.74v-248.48h54.47l79.96,154.18-1.59-50.01v-104.17h49.06v248.48Z"/>
        <path d="M406.05,802.46h-51.61v-203.88h-57.34v-44.6h166.61v44.6h-57.66v203.88Z"/>
        <path d="M485.36,723.77v-169.79h51.61v168.2c0,26.44,8.28,39.82,37.59,39.82s37.91-13.38,37.91-39.82v-168.2h51.61v169.79c0,54.15-21.98,82.83-89.52,82.83s-89.2-28.67-89.2-82.83Z"/>
        <path d="M749.76,802.46h-51.61v-248.48h81.55c40.46,0,86.33,10.51,86.33,76.45v6.37c0,40.14-16.88,59.89-39.18,69.13l39.18,96.52h-55.75l-34.09-89.2h-26.44v89.2ZM781.93,668.66c14.02,0,31.86-5.42,31.86-33.45v-3.19c0-28.03-17.84-33.45-31.86-33.45h-32.17v70.08h32.17Z"/>
        <path d="M1078.5,802.46h-54.47l-80.28-154.18,1.59,50.01v104.17h-48.74v-248.48h54.47l79.96,154.18-1.59-50.01v-104.17h49.06v248.48Z"/>
        <path d="M1195.73,553.98c38.86,0,79.96,10.51,79.96,68.81v6.37c0,22.62-9.88,36.63-24.21,44.92,17.84,8.6,30.58,23.89,30.58,50.65v6.37c0,60.53-43.64,71.36-83.78,71.36h-84.1v-248.48h81.55ZM1165.78,598.58v54.47h29.63c13.38,0,28.03-4.78,28.03-25.17v-4.14c0-20.39-14.65-25.17-28.03-25.17h-29.63ZM1165.78,697.97v59.89h34.09c14.33,0,29.94-6.05,29.94-28.67v-2.87c0-22.62-15.61-28.35-29.94-28.35h-34.09Z"/>
        <path d="M1313.59,723.77v-169.79h51.61v168.2c0,26.44,8.28,39.82,37.59,39.82s37.91-13.38,37.91-39.82v-168.2h51.61v169.79c0,54.15-21.98,82.83-89.52,82.83s-89.2-28.67-89.2-82.83Z"/>
        <path d="M1526.38,802.46v-248.48h51.61v203.88h91.74v44.6h-143.35Z"/>
        <path d="M1692.34,802.46v-248.48h51.61v203.88h91.74v44.6h-143.35Z"/>
      </g>
    </g>
  </g>
</svg>