<?xml version="1.0" encoding="UTF-8"?>
<svg xmlns="http://www.w3.org/2000/svg" version="1.1" viewBox="0 0 1920 1080">
  <!-- Generator: Adobe Illustrator 28.6.0, SVG Export Plug-In . SVG Version: 1.2.0 Build 709)  -->
  <g>
    <g id="Layer_1">
      <g>
        <path d="M488.42,182.37l86.82,348.19h-77.03l-16.92-74.8h-85.04l-16.47,74.8h-77.47l86.82-348.19h99.29ZM410.05,393.42h56.99l-28.5-127.79-28.5,127.79Z"/>
        <path d="M663.8,530.55h-72.13V183.26h93.97c56.55,0,120.66,14.69,120.66,106.86v8.91c0,56.1-23.6,83.71-54.77,96.62l54.77,134.91h-77.92l-47.64-124.67h-16.94v124.67ZM688.75,343.55c19.59,0,44.53-7.57,44.53-46.75v-4.45c0-39.18-24.93-46.75-44.53-46.75h-24.95v97.96h24.95Z"/>
        <path d="M969.7,530.55h-72.13V245.59h-80.15v-62.34h232.87v62.34h-80.59v284.96Z"/>
        <path d="M1116.79,365.81v-17.81c0-120.22,42.3-170.53,132.24-170.53s132.68,50.31,132.68,170.53v17.81c0,120.22-42.3,170.53-132.68,170.53s-132.24-50.31-132.24-170.53ZM1251.26,474.01c44.52,0,56.99-38.74,56.99-108.2v-17.81c0-69.46-12.47-108.2-56.99-108.2h-4.01c-44.53,0-57.44,38.74-57.44,108.2v17.81c0,69.46,12.91,108.2,57.44,108.2h4.01Z"/>
        <path d="M1617.7,183.26v62.34h-138.47v76.58h116.21v62.33h-116.21v146.04h-72.13V183.26h210.6Z"/>
        <path d="M575.24,896.74h-76.14l-112.2-215.5,2.23,69.9v145.6h-68.12v-347.3h76.14l111.76,215.5-2.23-69.9v-145.6h68.57v347.3Z"/>
        <path d="M603.45,732v-17.81c0-120.22,42.3-170.53,132.24-170.53s132.69,50.31,132.69,170.53v17.81c0,120.22-42.3,170.53-132.69,170.53s-132.24-50.31-132.24-170.53ZM737.91,840.2c44.53,0,56.99-38.74,56.99-108.2v-17.81c0-69.46-12.47-108.2-56.99-108.2h-4.01c-44.52,0-57.44,38.74-57.44,108.2v17.81c0,69.46,12.91,108.2,57.44,108.2h4.01Z"/>
        <path d="M968.08,896.74h-72.13v-347.3h72.13v347.3Z"/>
        <path d="M994.13,651.86v-4.9c0-62.78,43.19-103.3,122.44-103.3,85.49,0,122.89,37.85,122.89,119.33v9.35h-72.13c0-45.42-13.8-66.34-50.31-66.34h-4.01c-28.94,0-45.86,16.03-45.86,38.29v2.23c0,25.38,10.24,38.74,61,45.42,75.69,10.24,113.98,36.07,113.98,100.63v4.45c0,66.79-44.08,105.52-125.56,105.52s-125.12-36.51-125.12-120.22v-4.01h72.13c0,43.63,17.81,61.89,51.2,61.89h4.01c33.39,0,49.87-17.81,49.87-40.96v-2.23c0-24.93-12.91-38.74-63.23-45.42-75.69-10.24-111.31-36.96-111.31-99.74Z"/>
        <path d="M1478.07,549.45v62.33h-140.25v76.58h117.99v62.33h-117.99v83.71h140.25v62.33h-212.38v-347.3h212.38Z"/>
      </g>
    </g>
  </g>
</svg>