<?xml version="1.0" encoding="UTF-8"?>
<svg xmlns="http://www.w3.org/2000/svg" version="1.1" viewBox="0 0 1920 1080">
  <!-- Generator: Adobe Illustrator 28.6.0, SVG Export Plug-In . SVG Version: 1.2.0 Build 709)  -->
  <g>
    <g id="Layer_1">
      <g>
        <path d="M262.45,402.62h-50.57v-199.8h-56.19v-43.71h163.28v43.71h-56.5v199.8h-.01Z"/>
        <path d="M490.65,159.11v43.71h-98.34v53.69h82.73v43.71h-82.73v58.69h98.34v43.71h-148.91v-243.5h148.91Z"/>
        <path d="M669.54,159.11v43.71h-98.34v53.69h82.73v43.71h-82.73v58.69h98.34v43.71h-148.91v-243.5h148.91,0Z"/>
        <path d="M877.77,402.62h-53.39l-78.66-151.1,1.56,49.02v102.08h-47.76v-243.5h53.39l78.36,151.1-1.56-49.02v-102.08h48.08v243.5h-.01Z"/>
        <path d="M1030.11,158.49l60.87,244.13h-54l-11.86-52.45h-59.63l-11.55,52.45h-54.32l60.87-244.13h69.62,0ZM975.17,306.47h39.95l-19.98-89.6-19.98,89.6h.01Z"/>
        <path d="M1103.79,287.11v-12.49c0-84.29,30.28-119.57,93.34-119.57,58.07,0,88.66,24.35,88.66,85.23v11.24h-50.58c0-33.4-7.18-52.76-35.28-52.76h-2.81c-33.4,0-41.84,27.16-41.84,75.86v12.49c0,48.7,8.11,75.86,43.71,75.86h2.81c14.36,0,25.6-4.06,33.1-9.37v-39.02h-32.16v-43.71h82.73v107.39c-18.11,14.98-42.77,28.41-85.23,28.41-66.18,0-96.47-35.28-96.47-119.57h.01Z"/>
        <path d="M1468.11,159.11v43.71h-98.34v53.69h82.73v43.71h-82.73v58.69h98.34v43.71h-148.91v-243.5h148.91Z"/>
        <path d="M490.65,416.23v43.71h-98.34v53.69h82.73v43.71h-82.73v58.69h98.34v43.71h-148.91v-243.5h148.91Z"/>
        <path d="M698.88,659.73h-53.39l-78.66-151.1,1.56,49.02v102.08h-47.76v-243.5h53.39l78.36,151.1-1.56-49.02v-102.08h48.08v243.5h-.01Z"/>
        <path d="M728.53,544.23v-12.48c0-84.29,30.28-119.57,93.34-119.57,58.07,0,88.66,24.35,88.66,85.23v11.24h-50.58c0-33.4-7.18-52.76-35.28-52.76h-2.81c-33.4,0-41.84,27.16-41.84,75.86v12.48c0,48.7,8.11,75.86,43.71,75.86h2.81c14.36,0,25.6-4.06,33.1-9.37v-39.02h-32.16v-43.71h82.73v107.39c-18.11,14.98-42.77,28.41-85.23,28.41-66.18,0-96.47-35.28-96.47-119.57h.01Z"/>
        <path d="M996.07,659.73h-50.57v-243.5h50.57v243.5Z"/>
        <path d="M698.82,920.89h-53.39l-78.66-151.1,1.56,49.02v102.08h-47.76v-243.5h53.39l78.36,151.1-1.56-49.02v-102.08h48.08v243.5h-.01Z"/>
        <path d="M882.7,677.38v43.71h-98.34v53.69h82.73v43.71h-82.73v58.69h98.34v43.71h-148.91v-243.5h148.91Z"/>
        <path d="M1061.59,677.38v43.71h-98.34v53.69h82.73v43.71h-82.73v58.69h98.34v43.71h-148.91v-243.5h148.91Z"/>
        <path d="M1142.12,920.89h-50.58v-243.5h79.92c39.65,0,84.6,10.31,84.6,74.92v6.24c0,39.34-16.55,58.69-38.4,67.74l38.4,94.6h-54.63l-33.4-87.41h-25.91v87.41h0ZM1173.65,789.77c13.74,0,31.22-5.31,31.22-32.78v-3.13c0-27.47-17.48-32.78-31.22-32.78h-31.53v68.68h31.53Z"/>
        <path d="M1338.18,920.89h-50.58v-243.5h50.58v243.5Z"/>
        <path d="M1552.65,920.89h-53.39l-78.68-151.1,1.56,49.02v102.08h-47.76v-243.5h53.39l78.36,151.1-1.56-49.02v-102.08h48.08v243.5Z"/>
        <path d="M1582.31,805.38v-12.48c0-84.29,30.28-119.57,93.34-119.57,58.07,0,88.66,24.35,88.66,85.23v11.24h-50.58c0-33.4-7.18-52.76-35.28-52.76h-2.81c-33.4,0-41.84,27.16-41.84,75.86v12.48c0,48.7,8.11,75.86,43.71,75.86h2.81c14.36,0,25.6-4.06,33.1-9.37v-39.02h-32.16v-43.71h82.73v107.39c-18.11,14.98-42.77,28.41-85.23,28.41-66.18,0-96.47-35.28-96.47-119.57h.01Z"/>
      </g>
      <path d="M1032.11,528.88h85.72v43.33h-85.72v-43.33Z"/>
    </g>
  </g>
</svg>